TITLE ""
FILE "P1Q_t_0139-0148.mp3" MP3
  TRACK 01 AUDIO
    TITLE "P1Q_t_0139-0148_01"
    INDEX 01 00:00:00
  TRACK 02 AUDIO
    TITLE "P1Q_t_0139-0148_02"
    INDEX 01 00:01:23
  TRACK 03 AUDIO
    TITLE "P1Q_t_0139-0148_03"
    INDEX 01 00:01:45
  TRACK 04 AUDIO
    TITLE "P1Q_t_0139-0148_04"
    INDEX 01 00:03:73
  TRACK 05 AUDIO
    TITLE "P1Q_t_0139-0148_05"
    INDEX 01 00:04:18
  TRACK 06 AUDIO
    TITLE "P1Q_t_0139-0148_06"
    INDEX 01 00:08:33
  TRACK 07 AUDIO
    TITLE "P1Q_t_0139-0148_07"
    INDEX 01 00:09:05
  TRACK 08 AUDIO
    TITLE "P1Q_t_0139-0148_08"
    INDEX 01 00:10:22
  TRACK 09 AUDIO
    TITLE "P1Q_t_0139-0148_09"
    INDEX 01 00:10:46
  TRACK 10 AUDIO
    TITLE "P1Q_t_0139-0148_10"
    INDEX 01 00:12:62
  TRACK 11 AUDIO
    TITLE "P1Q_t_0139-0148_11"
    INDEX 01 00:13:07
  TRACK 12 AUDIO
    TITLE "P1Q_t_0139-0148_12"
    INDEX 01 00:17:50
  TRACK 13 AUDIO
    TITLE "P1Q_t_0139-0148_13"
    INDEX 01 00:18:22
  TRACK 14 AUDIO
    TITLE "P1Q_t_0139-0148_14"
    INDEX 01 00:19:31
  TRACK 15 AUDIO
    TITLE "P1Q_t_0139-0148_15"
    INDEX 01 00:19:53
  TRACK 16 AUDIO
    TITLE "P1Q_t_0139-0148_16"
    INDEX 01 00:21:59
  TRACK 17 AUDIO
    TITLE "P1Q_t_0139-0148_17"
    INDEX 01 00:22:04
  TRACK 18 AUDIO
    TITLE "P1Q_t_0139-0148_18"
    INDEX 01 00:27:07
  TRACK 19 AUDIO
    TITLE "P1Q_t_0139-0148_19"
    INDEX 01 00:27:52
  TRACK 20 AUDIO
    TITLE "P1Q_t_0139-0148_20"
    INDEX 01 00:28:50
  TRACK 21 AUDIO
    TITLE "P1Q_t_0139-0148_21"
    INDEX 01 00:29:04
  TRACK 22 AUDIO
    TITLE "P1Q_t_0139-0148_22"
    INDEX 01 00:30:13
  TRACK 23 AUDIO
    TITLE "P1Q_t_0139-0148_23"
    INDEX 01 00:30:33
  TRACK 24 AUDIO
    TITLE "P1Q_t_0139-0148_24"
    INDEX 01 00:35:54
  TRACK 25 AUDIO
    TITLE "P1Q_t_0139-0148_25"
    INDEX 01 00:36:24
  TRACK 26 AUDIO
    TITLE "P1Q_t_0139-0148_26"
    INDEX 01 00:37:43
  TRACK 27 AUDIO
    TITLE "P1Q_t_0139-0148_27"
    INDEX 01 00:37:64
  TRACK 28 AUDIO
    TITLE "P1Q_t_0139-0148_28"
    INDEX 01 00:42:58
  TRACK 29 AUDIO
    TITLE "P1Q_t_0139-0148_29"
    INDEX 01 00:43:04
  TRACK 30 AUDIO
    TITLE "P1Q_t_0139-0148_30"
    INDEX 01 00:49:50
  TRACK 31 AUDIO
    TITLE "P1Q_t_0139-0148_31"
    INDEX 01 00:50:18
  TRACK 32 AUDIO
    TITLE "P1Q_t_0139-0148_32"
    INDEX 01 00:51:43
  TRACK 33 AUDIO
    TITLE "P1Q_t_0139-0148_33"
    INDEX 01 00:51:63
  TRACK 34 AUDIO
    TITLE "P1Q_t_0139-0148_34"
    INDEX 01 00:53:71
  TRACK 35 AUDIO
    TITLE "P1Q_t_0139-0148_35"
    INDEX 01 00:54:16
  TRACK 36 AUDIO
    TITLE "P1Q_t_0139-0148_36"
    INDEX 01 00:59:70
  TRACK 37 AUDIO
    TITLE "P1Q_t_0139-0148_37"
    INDEX 01 01:00:40
  TRACK 38 AUDIO
    TITLE "P1Q_t_0139-0148_38"
    INDEX 01 01:01:45
  TRACK 39 AUDIO
    TITLE "P1Q_t_0139-0148_39"
    INDEX 01 01:01:65
  TRACK 40 AUDIO
    TITLE "P1Q_t_0139-0148_40"
    INDEX 01 01:03:68
  TRACK 41 AUDIO
    TITLE "P1Q_t_0139-0148_41"
    INDEX 01 01:04:12
  TRACK 42 AUDIO
    TITLE "P1Q_t_0139-0148_42"
    INDEX 01 01:09:23
  TRACK 43 AUDIO
    TITLE "P1Q_t_0139-0148_43"
    INDEX 01 01:09:72
  TRACK 44 AUDIO
    TITLE "P1Q_t_0139-0148_44"
    INDEX 01 01:11:18
  TRACK 45 AUDIO
    TITLE "P1Q_t_0139-0148_45"
    INDEX 01 01:11:40
  TRACK 46 AUDIO
    TITLE "P1Q_t_0139-0148_46"
    INDEX 01 01:15:18
  TRACK 47 AUDIO
    TITLE "P1Q_t_0139-0148_47"
    INDEX 01 01:15:39
  TRACK 48 AUDIO
    TITLE "P1Q_t_0139-0148_48"
    INDEX 01 01:20:13
  TRACK 49 AUDIO
    TITLE "P1Q_t_0139-0148_49"
    INDEX 01 01:20:58
  TRACK 50 AUDIO
    TITLE "P1Q_t_0139-0148_50"
    INDEX 01 01:21:73
  TRACK 51 AUDIO
    TITLE "P1Q_t_0139-0148_51"
    INDEX 01 01:22:20
  TRACK 52 AUDIO
    TITLE "P1Q_t_0139-0148_52"
    INDEX 01 01:24:64
  TRACK 53 AUDIO
    TITLE "P1Q_t_0139-0148_53"
    INDEX 01 01:25:10
  TRACK 54 AUDIO
    TITLE "P1Q_t_0139-0148_54"
    INDEX 01 01:30:08
  TRACK 55 AUDIO
    TITLE "P1Q_t_0139-0148_55"
    INDEX 01 01:30:55
  TRACK 56 AUDIO
    TITLE "P1Q_t_0139-0148_56"
    INDEX 01 01:32:12
  TRACK 57 AUDIO
    TITLE "P1Q_t_0139-0148_57"
    INDEX 01 01:32:36
  TRACK 58 AUDIO
    TITLE "P1Q_t_0139-0148_58"
    INDEX 01 01:35:72
  TRACK 59 AUDIO
    TITLE "P1Q_t_0139-0148_59"
    INDEX 01 01:36:16
  TRACK 60 AUDIO
    TITLE "P1Q_t_0139-0148_60"
    INDEX 01 01:41:57
